PathFileType	4	(x/y/z)	S05_P20_T08
DataRate	CameraRate	NumFrames	NumMarkers	Units	OrigDataRate	OrigDataStartFrame	OrigNumFrames
240	240	12	50	mm	240	1	386
Frame#	Time	Sternum			R.Acromium			L.Acromium			Top.Head			R.ASIS			L.ASIS			R.PSIS			L.PSIS			R.Great.Tro			L.Great.Tro			R.Iliac.Crest			L.Iliac.Crest			V.Sacral			R.Thigh.Upper.Post			R.Thigh.Lower.Ant			R.Thigh.Lower.Post			R.Thigh.Upper.Ant			R.Knee.Lat			R.Knee.Med			R.Shank.Upper.Post			R.Shank.Lower.Ant			R.Shank.Lower.Post			R.Shank.Upper.Ant			R.Ankle.Lat			R.Ankle.Med			R.Heel.Upper			R.Heel.Med			R.Heel.Lat			R.Toe.Lat			R.Toe.Med			R.Toe.Tip			L.Thigh.Upper.Post			L.Thigh.Lower.Ant			L.Thigh.Lower.Post			L.Thigh.Upper.Ant			L.Knee.Lat			L.Shank.Upper.Post			L.Shank.Lower.Ant			L.Shank.Lower.Post			L.Shank.Upper.Ant			L.Ankle.Lat			L.Ankle.Med			L.Heel.Upper			L.Heel.Med			L.Heel.Lat			L.Toe.Lat			L.Toe.Med			L.Toe.Tip			Cervical.Spine			Back			
		X1	Y1	Z1	X2	Y2	Z2	X3	Y3	Z3	X4	Y4	Z4	X5	Y5	Z5	X6	Y6	Z6	X7	Y7	Z7	X8	Y8	Z8	X9	Y9	Z9	X10	Y10	Z10	X11	Y11	Z11	X12	Y12	Z12	X13	Y13	Z13	X14	Y14	Z14	X15	Y15	Z15	X16	Y16	Z16	X17	Y17	Z17	X18	Y18	Z18	X19	Y19	Z19	X20	Y20	Z20	X21	Y21	Z21	X22	Y22	Z22	X23	Y23	Z23	X24	Y24	Z24	X25	Y25	Z25	X26	Y26	Z26	X27	Y27	Z27	X28	Y28	Z28	X29	Y29	Z29	X30	Y30	Z30	X31	Y31	Z31	X32	Y32	Z32	X33	Y33	Z33	X34	Y34	Z34	X35	Y35	Z35	X36	Y36	Z36	X37	Y37	Z37	X38	Y38	Z38	X39	Y39	Z39	X40	Y40	Z40	X41	Y41	Z41	X42	Y42	Z42	X43	Y43	Z43	X44	Y44	Z44	X45	Y45	Z45	X46	Y46	Z46	X47	Y47	Z47	X48	Y48	Z48	X49	Y49	Z49	X50	Y50	Z50	

1	0	NaN	NaN	NaN	NaN	NaN	NaN	-1524.5	1523.3	177.97	-1523.6	1816.3	333.2	NaN	NaN	NaN	NaN	NaN	NaN	NaN	NaN	NaN	NaN	NaN	NaN	-1596.8	923.2	531.29	-1554.5	922.14	139.81	-1586.1	1084	508.66	-1565.5	1077.5	173.09	-1700.8	986.97	340.84	-1587.1	695.17	512.68	NaN	NaN	NaN	-1621.5	612.66	488.59	NaN	NaN	NaN	NaN	NaN	NaN	NaN	NaN	NaN	-1809	314.76	452.33	-1763.7	232.77	449.45	-1829.5	243.36	433.09	-1740.6	305.44	465.84	-1805.3	135.36	428.55	-1789	160.4	341.37	-1886.2	92.244	365.7	-1875.2	57.624	339.94	-1881	64.597	403.52	-1720.5	42.158	467.1	-1677.8	43.704	348.86	-1615.8	56.91	397.25	-1483.7	687.28	141.2	-1386.6	640.44	170.84	-1447.5	600.07	157.64	-1414.7	726.08	155.68	-1403	524.73	167.72	-1379.5	316.45	164.83	-1294	293.55	163.88	-1348.1	250.94	181.96	-1325.9	356.57	153.23	-1253.9	137.2	186.07	-1227.2	170.35	270.85	NaN	NaN	NaN	-1252.7	50.07	273.31	-1264.3	42.422	214.24	-1112.2	125.58	141.39	-1086.4	151.98	256.79	-1042.9	191.88	196.69	-1573.1	1557	353.12	-1692.8	1284.2	350.24
2	0.0041667	NaN	NaN	NaN	-1501.5	1503.1	511.4	-1519.4	1522.3	177.27	-1518.1	1815.6	332.16	NaN	NaN	NaN	NaN	NaN	NaN	NaN	NaN	NaN	NaN	NaN	NaN	-1592.1	922.6	531.01	-1549	921.56	139.56	-1581.1	1083.4	508.41	-1560.1	1076.8	172.76	-1695.6	986.3	340.41	-1583.2	694.57	512.58	NaN	NaN	NaN	-1618.4	612.37	488.93	NaN	NaN	NaN	NaN	NaN	NaN	NaN	NaN	NaN	-1807	315.53	452.22	-1762.2	233.19	449.4	-1827.7	244.14	432.88	-1738.7	305.76	465.81	-1804.7	136.02	428.56	-1788	161.03	341.35	-1885.8	93.538	365.7	-1875	58.877	339.88	-1880.7	65.826	403.47	-1720.5	42.136	467.12	-1677.7	43.675	348.89	-1615.6	56.638	397.3	-1477.5	687.06	141.28	-1380.3	640.3	171.11	-1441.2	599.89	157.8	-1408.5	725.92	155.87	-1397	524.28	167.84	-1374.9	316.01	164.83	-1289.6	292.31	164.2	-1344	250.15	181.9	-1320.9	355.57	153.5	-1251	135.79	186.18	-1224.4	168.48	271.1	NaN	NaN	NaN	-1250.8	48.557	273.24	-1262.2	41.215	214.08	-1109.2	123.18	142.19	-1083.8	149.08	257.7	-1039.7	188.92	198.02	-1567.2	1556.1	352.6	-1686.8	1283.1	350.07
3	0.0083333	NaN	NaN	NaN	-1496.3	1502.6	510.7	-1514	1521.4	176.53	-1512.4	1814.9	331.07	NaN	NaN	NaN	NaN	NaN	NaN	NaN	NaN	NaN	NaN	NaN	NaN	-1587.3	922.02	530.71	-1543.1	920.96	139.29	-1575.9	1082.7	508.13	-1554.6	1076	172.4	-1690.2	985.63	339.95	-1579.2	693.97	512.47	NaN	NaN	NaN	-1615	612.09	489.25	NaN	NaN	NaN	NaN	NaN	NaN	NaN	NaN	NaN	-1804.8	316.36	452.1	-1760.6	233.65	449.36	-1825.7	244.98	432.67	-1736.6	306.12	465.78	-1804.1	136.74	428.58	-1787	161.71	341.34	-1885.3	94.94	365.72	-1874.7	60.238	339.83	-1880.4	67.157	403.43	-1720.4	42.116	467.15	-1677.5	43.647	348.92	-1615.4	56.361	397.35	-1471.1	686.84	141.38	-1373.9	640.17	171.39	-1434.7	599.7	157.98	-1402.1	725.75	156.05	-1390.7	523.84	167.97	-1370.1	315.55	164.83	-1285	291.02	164.54	-1339.9	249.33	181.83	-1315.7	354.53	153.79	-1248.1	134.34	186.28	-1221.6	166.53	271.36	NaN	NaN	NaN	-1248.9	47.039	273.18	-1260.2	40.023	213.93	-1106.1	120.64	143.03	-1081.1	146.03	258.63	-1036.4	185.78	199.38	-1561.1	1555.2	352.04	-1680.7	1282.1	349.88
4	0.0125	NaN	NaN	NaN	-1490.9	1502	509.96	-1508.5	1520.4	175.76	-1506.5	1814.1	329.94	NaN	NaN	NaN	NaN	NaN	NaN	NaN	NaN	NaN	NaN	NaN	NaN	-1582.3	921.46	530.39	-1536.9	920.36	139.02	-1570.5	1082	507.83	-1548.8	1075.3	172.02	-1684.6	984.95	339.46	-1574.9	693.37	512.36	NaN	NaN	NaN	-1611.5	611.81	489.54	NaN	NaN	NaN	NaN	NaN	NaN	NaN	NaN	NaN	-1802.6	317.24	451.99	-1758.9	234.16	449.34	-1823.6	245.87	432.45	-1734.5	306.51	465.76	-1803.4	137.54	428.62	-1785.9	162.46	341.34	-1884.7	96.455	365.75	-1874.4	61.714	339.78	-1880.1	68.599	403.4	-1720.3	42.1	467.18	-1677.4	43.62	348.95	-1615.2	56.081	397.41	-1464.5	686.61	141.5	-1367.2	640.03	171.68	-1428	599.51	158.19	-1395.4	725.58	156.22	-1384.3	523.39	168.11	-1365.3	315.08	164.82	-1280.3	289.69	164.89	-1335.7	248.49	181.77	-1310.5	353.46	154.09	-1245.1	132.86	186.39	-1218.7	164.53	271.62	NaN	NaN	NaN	-1247.1	45.537	273.11	-1258.2	38.865	213.77	-1102.9	117.97	143.87	-1078.3	142.83	259.57	-1033.1	182.45	200.75	-1554.9	1554.2	351.43	-1674.4	1281.1	349.64
5	0.016667	NaN	NaN	NaN	-1485.3	1501.4	509.19	-1502.8	1519.4	174.95	-1500.6	1813.4	328.78	NaN	NaN	NaN	NaN	NaN	NaN	NaN	NaN	NaN	NaN	NaN	NaN	-1577.2	920.92	530.06	-1530.6	919.75	138.74	-1564.9	1081.3	507.5	-1542.8	1074.6	171.62	-1678.8	984.28	338.94	-1570.5	692.77	512.25	NaN	NaN	NaN	-1607.7	611.54	489.8	NaN	NaN	NaN	NaN	NaN	NaN	NaN	NaN	NaN	-1800.1	318.17	451.88	-1757	234.71	449.32	-1821.4	246.83	432.24	-1732.2	306.94	465.76	-1802.6	138.41	428.67	-1784.7	163.26	341.36	-1884.1	98.091	365.8	-1874	63.314	339.75	-1879.7	70.157	403.38	-1720.2	42.09	467.23	-1677.2	43.596	348.98	-1614.9	55.802	397.47	-1457.7	686.38	141.63	-1360.4	639.9	171.98	-1421.1	599.32	158.42	-1388.6	725.4	156.39	-1377.7	522.94	168.25	-1360.4	314.61	164.81	-1275.6	288.33	165.25	-1331.4	247.64	181.7	-1305.1	352.38	154.4	-1242.2	131.36	186.5	-1215.8	162.49	271.88	NaN	NaN	NaN	-1245.4	44.074	273.05	-1256.3	37.765	213.6	-1099.8	115.19	144.73	-1075.6	139.5	260.51	-1029.7	178.94	202.11	-1548.6	1553.3	350.78	-1668	1280.1	349.37
6	0.020833	NaN	NaN	NaN	-1479.6	1500.9	508.39	-1497	1518.5	174.12	-1494.6	1812.7	327.59	NaN	NaN	NaN	NaN	NaN	NaN	NaN	NaN	NaN	NaN	NaN	NaN	-1572	920.41	529.72	-1524	919.15	138.46	-1559.2	1080.6	507.15	-1536.8	1074	171.19	-1672.9	983.63	338.39	-1565.8	692.19	512.14	NaN	NaN	NaN	-1603.6	611.28	490.01	NaN	NaN	NaN	-1646.6	522.89	468.69	NaN	NaN	NaN	-1797.5	319.16	451.78	-1755.1	235.32	449.32	-1819	247.85	432.03	-1729.7	307.4	465.78	-1801.8	139.37	428.74	-1783.5	164.13	341.4	-1883.5	99.857	365.86	-1873.6	65.048	339.72	-1879.3	71.841	403.38	-1720.1	42.09	467.3	-1677.1	43.576	349.03	-1614.7	55.526	397.54	-1450.8	686.15	141.78	-1353.5	639.76	172.27	-1414.2	599.14	158.67	-1381.7	725.22	156.54	-1370.9	522.5	168.4	-1355.4	314.14	164.8	-1270.8	286.96	165.61	-1327.2	246.79	181.64	-1299.7	351.28	154.72	-1239.3	129.85	186.61	-1213	160.42	272.14	NaN	NaN	NaN	-1243.7	42.671	273	-1254.5	36.743	213.44	-1096.8	112.3	145.59	-1073	136.05	261.44	-1026.4	175.27	203.45	-1542.2	1552.5	350.09	-1661.5	1279.1	349.05
7	0.025	NaN	NaN	NaN	-1473.7	1500.3	507.56	-1491.1	1517.6	173.25	-1488.6	1812.1	326.38	NaN	NaN	NaN	NaN	NaN	NaN	NaN	NaN	NaN	NaN	NaN	NaN	-1566.7	919.95	529.36	-1517.3	918.56	138.18	-1553.3	1079.9	506.77	-1530.6	1073.3	170.74	-1666.9	983	337.81	-1561.1	691.63	512.03	NaN	NaN	NaN	-1599.4	611.03	490.18	NaN	NaN	NaN	-1642.3	522.66	468.74	NaN	NaN	NaN	-1794.8	320.2	451.68	-1753.1	235.98	449.35	-1816.5	248.94	431.83	-1727.1	307.9	465.81	-1800.9	140.42	428.83	-1782.1	165.08	341.47	-1882.8	101.76	365.94	-1873.2	66.927	339.71	-1878.8	73.661	403.39	-1720	42.101	467.37	-1676.9	43.563	349.07	-1614.5	55.255	397.61	-1443.8	685.93	141.94	-1346.5	639.62	172.56	-1407.2	598.95	158.95	-1374.7	725.04	156.67	-1364.2	522.07	168.55	-1350.4	313.68	164.79	-1266.1	285.58	165.98	-1322.9	245.95	181.59	-1294.3	350.19	155.05	-1236.4	128.36	186.72	-1210.1	158.35	272.38	NaN	NaN	NaN	-1242.1	41.349	272.95	-1252.9	35.823	213.27	-1093.7	109.33	146.43	-1070.3	132.52	262.34	-1023.1	171.45	204.74	-1535.8	1551.7	349.35	-1655	1278.2	348.69
8	0.029167	NaN	NaN	NaN	-1467.7	1499.8	506.7	-1485.2	1516.7	172.36	-1482.6	1811.4	325.16	NaN	NaN	NaN	NaN	NaN	NaN	NaN	NaN	NaN	NaN	NaN	NaN	-1561.4	919.53	528.99	-1510.5	918	137.89	-1547.4	1079.3	506.36	-1524.3	1072.7	170.27	-1660.7	982.41	337.21	-1556.1	691.1	511.92	NaN	NaN	NaN	-1594.8	610.79	490.31	NaN	NaN	NaN	-1637.7	522.41	468.79	NaN	NaN	NaN	-1791.9	321.31	451.6	-1751	236.71	449.39	-1813.9	250.12	431.65	-1724.4	308.45	465.87	-1799.9	141.56	428.95	-1780.7	166.09	341.56	-1881.9	103.82	366.05	-1872.7	68.964	339.71	-1878.3	75.628	403.41	-1720	42.127	467.45	-1676.8	43.556	349.12	-1614.3	54.991	397.69	-1436.8	685.72	142.11	-1339.5	639.48	172.84	-1400.2	598.77	159.24	-1367.7	724.85	156.77	-1357.4	521.65	168.7	-1345.5	313.23	164.77	-1261.3	284.21	166.34	-1318.8	245.14	181.54	-1289	349.11	155.37	-1233.7	126.88	186.82	-1207.3	156.3	272.62	NaN	NaN	NaN	-1240.6	40.128	272.91	-1251.3	35.023	213.1	-1090.8	106.28	147.26	-1067.8	128.91	263.21	-1019.8	167.5	205.97	-1529.4	1550.9	348.57	-1648.5	1277.4	348.28
9	0.033333	NaN	NaN	NaN	-1461.6	1499.3	505.83	-1479.2	1515.8	171.45	-1476.6	1810.9	323.91	NaN	NaN	NaN	NaN	NaN	NaN	NaN	NaN	NaN	NaN	NaN	NaN	-1556	919.16	528.59	-1503.5	917.47	137.6	-1541.3	1078.7	505.92	-1517.9	1072.1	169.78	-1654.5	981.85	336.57	-1551	690.6	511.82	NaN	NaN	NaN	-1590	610.56	490.39	NaN	NaN	NaN	-1632.9	522.14	468.87	NaN	NaN	NaN	-1788.8	322.47	451.52	-1748.7	237.51	449.46	-1811.2	251.38	431.48	-1721.6	309.04	465.96	-1798.9	142.8	429.09	-1779.2	167.18	341.68	-1881	106.04	366.17	-1872.1	71.172	339.71	-1877.7	77.754	403.45	-1719.9	42.172	467.54	-1676.6	43.559	349.18	-1614	54.734	397.78	-1429.8	685.51	142.28	-1332.4	639.34	173.1	-1393.2	598.6	159.55	-1360.7	724.67	156.86	-1350.6	521.26	168.84	-1340.6	312.79	164.75	-1256.7	282.86	166.69	-1314.6	244.36	181.49	-1283.6	348.04	155.69	-1230.9	125.45	186.92	-1204.5	154.28	272.84	NaN	NaN	NaN	-1239.2	39.024	272.87	-1249.9	34.359	212.93	-1088	103.18	148.06	-1065.3	125.25	264.02	-1016.6	163.45	207.13	-1522.9	1550.2	347.76	-1642	1276.6	347.83
10	0.0375	NaN	NaN	NaN	-1455.5	1498.9	504.93	-1473.2	1515	170.51	-1470.6	1810.3	322.66	NaN	NaN	NaN	NaN	NaN	NaN	NaN	NaN	NaN	NaN	NaN	NaN	-1550.6	918.83	528.18	-1496.4	916.98	137.31	-1535.2	1078.1	505.45	-1511.5	1071.6	169.27	-1648.2	981.35	335.92	-1545.8	690.14	511.72	NaN	NaN	NaN	-1584.9	610.32	490.43	NaN	NaN	NaN	-1627.7	521.85	468.96	NaN	NaN	NaN	-1785.5	323.7	451.46	-1746.3	238.38	449.56	-1808.3	252.75	431.34	-1718.5	309.68	466.07	-1797.6	144.15	429.25	-1777.6	168.36	341.83	-1880	108.43	366.3	-1871.5	73.565	339.73	-1877.1	80.052	403.5	-1719.8	42.242	467.64	-1676.5	43.573	349.24	-1613.8	54.485	397.88	-1422.9	685.32	142.46	-1325.5	639.19	173.35	-1386.2	598.43	159.86	-1353.7	724.49	156.91	-1343.9	520.88	168.97	-1335.7	312.38	164.72	-1252	281.55	167.04	-1310.5	243.62	181.45	-1278.3	347.01	156	-1228.3	124.06	187.01	-1201.7	152.31	273.04	NaN	NaN	NaN	-1237.9	38.048	272.85	-1248.7	33.844	212.75	-1085.2	100.04	148.82	-1062.8	121.57	264.78	-1013.4	159.31	208.21	-1516.6	1549.5	346.9	-1635.5	1275.9	347.34
11	0.041667	NaN	NaN	NaN	-1449.4	1498.5	504.01	-1467.2	1514.3	169.55	-1464.6	1809.9	321.39	NaN	NaN	NaN	NaN	NaN	NaN	NaN	NaN	NaN	NaN	NaN	NaN	-1545.1	918.55	527.75	-1489.3	916.54	137.01	-1529	1077.6	504.95	-1505	1071.1	168.74	-1641.9	980.89	335.23	-1540.4	689.73	511.63	NaN	NaN	NaN	-1579.5	610.08	490.45	NaN	NaN	NaN	-1622.3	521.54	469.07	NaN	NaN	NaN	-1781.9	325	451.41	-1743.8	239.34	449.69	-1805.3	254.23	431.22	-1715.3	310.37	466.21	-1796.3	145.62	429.43	-1775.8	169.62	342.02	-1878.8	111.01	366.46	-1870.7	76.158	339.75	-1876.4	82.535	403.57	-1719.7	42.341	467.74	-1676.3	43.6	349.3	-1613.6	54.243	397.98	-1416	685.14	142.63	-1318.6	639.04	173.56	-1379.4	598.26	160.17	-1346.7	724.3	156.94	-1337.2	520.54	169.08	-1330.9	311.99	164.7	-1247.4	280.29	167.36	-1306.5	242.93	181.42	-1273.1	346.02	156.3	-1225.7	122.74	187.09	-1198.9	150.41	273.23	NaN	NaN	NaN	-1236.7	37.21	272.83	-1247.5	33.485	212.58	-1082.6	96.887	149.54	-1060.4	117.88	265.47	-1010.4	155.12	209.19	-1510.2	1549	346.02	-1629.1	1275.3	346.8
12	0.045833	NaN	NaN	NaN	-1443.2	1498.2	503.08	-1461.2	1513.6	168.58	-1458.7	1809.5	320.12	NaN	NaN	NaN	NaN	NaN	NaN	NaN	NaN	NaN	NaN	NaN	NaN	-1539.5	918.32	527.29	-1482.2	916.15	136.71	-1522.8	1077.2	504.43	-1498.5	1070.7	168.19	-1635.6	980.49	334.53	-1534.8	689.37	511.56	NaN	NaN	NaN	-1573.9	609.82	490.45	NaN	NaN	NaN	-1616.6	521.21	469.21	NaN	NaN	NaN	-1778.1	326.36	451.38	-1741.1	240.39	449.86	-1802.1	255.83	431.14	-1711.9	311.12	466.38	-1794.8	147.21	429.64	-1773.9	170.97	342.24	-1877.5	113.79	366.62	-1869.8	78.965	339.77	-1875.5	85.217	403.64	-1719.6	42.476	467.84	-1676.2	43.645	349.37	-1613.4	54.009	398.09	-1409.2	684.98	142.8	-1311.7	638.89	173.75	-1372.6	598.11	160.47	-1339.9	724.12	156.93	-1330.7	520.22	169.17	-1326.1	311.64	164.67	-1242.9	279.09	167.66	-1302.5	242.3	181.39	-1268	345.08	156.57	-1223.1	121.48	187.15	-1196.2	148.58	273.39	NaN	NaN	NaN	-1235.6	36.513	272.82	-1246.5	33.284	212.39	-1080.1	93.726	150.21	-1058.1	114.21	266.08	-1007.3	150.88	210.06	-1503.9	1548.5	345.1	-1622.6	1274.8	346.22
